<svg xmlns="http://www.w3.org/2000/svg" width="64" height="64" viewBox="0 0 64 64">
  <defs>
    <path id="blade-left" d="m 8.2177,1043.1885 c -5.8307,3.1677 -2.3576,7.3714 -2.3576,7.3714 1.0552,-2.1255 3.5999,-6.2732 3.5999,-6.2732 0,0 -0.921,-0.7529 -1.2423,-1.0982 z"/>
    <mask id="cut" maskUnits="userSpaceOnUse" x="0" y="1030" width="16" height="30">
      <rect x="0" y="1030" width="16" height="30" fill="#ffffff"/>
      <use href="#blade-left" fill="#000000" stroke="#000000" stroke-width="0.6" stroke-linejoin="round"/>
    </mask>
  </defs>
  <circle cx="19.51" cy="18.55" r="8.97" fill="none" stroke="#ffffff" stroke-width="7.33"/>
  <circle cx="44.48" cy="18.55" r="8.97" fill="none" stroke="#ffffff" stroke-width="7.33"/>
  <g transform="matrix(4,0,0,4,0.003,-4144.83)" fill="#ffffff">
    <use href="#blade-left"/>
    <path mask="url(#cut)" d="m 7.7802,1043.1885 c 5.8307,3.1677 2.3576,7.3714 2.3576,7.3714 -1.0552,-2.1255 -3.5999,-6.2732 -3.5999,-6.2732 0,0 0.921,-0.7529 1.2423,-1.0982 z"/>
  </g>
</svg>
